<?xml version="1.0" standalone="no"?><!DOCTYPE svg PUBLIC "-//W3C//DTD SVG 1.1//EN" "http://www.w3.org/Graphics/SVG/1.1/DTD/svg11.dtd"><svg t="1692091753000" class="icon" viewBox="0 0 1317 1024" version="1.1" xmlns="http://www.w3.org/2000/svg" p-id="4146" xmlns:xlink="http://www.w3.org/1999/xlink" width="257.2265625" height="200"><path d="M273.115429 957.147429q-4.534857 9.142857-15.433143 19.748571t-21.138286 14.555429q-14.262857 5.12-29.403429-1.974857t-16.310857-17.993143q-0.585143-12.580571 22.820571-31.451429t38.838857-21.723429q13.165714-2.267429 19.456 12.288t1.170286 26.550857zM1039.433143 957.147429q4.022857 9.142857 14.848 19.748571t21.723429 14.555429q14.262857 5.12 29.403429-1.974857t15.725714-17.993143q1.170286-12.580571-22.601143-31.451429t-39.131429-21.723429q-12.580571-2.267429-18.870857 12.288t-1.170286 26.550857zM1066.861714 894.829714q7.460571 15.433143 32.256 34.011429t44.251429 23.698286q25.746286 7.460571 46.884571-2.56t21.138286-28.891429q0-26.258286-38.546286-57.417143t-65.974857-34.011429q-22.820571-2.852571-36.278857 21.430857t-3.730286 43.739429zM244.589714 894.829714q-7.460571 15.433143-32.036571 34.011429t-44.032 23.698286q-25.746286 7.460571-46.884571-2.56t-21.138286-28.891429q0-26.258286 38.546286-57.417143t65.974857-34.011429q22.820571-2.852571 35.986286 21.430857t3.437714 43.739429zM661.723429 252.562286l0.585143 0q-23.405714 0-43.446857 8.557714 15.433143 4.534857 25.161143 17.408t9.728 28.306286q0 19.968-15.433143 34.304t-37.156571 14.262857q-29.696 0-45.714286-24.576-2.852571 13.165714-2.852571 23.990857 0 42.276571 32.036571 72.265143t77.165714 29.988571q45.714286 0 77.677714-29.988571t32.036571-72.265143-32.036571-72.265143-77.677714-29.988571zM835.437714 128q-56.539429-62.317714-126.025143-75.117714t-140.288 25.453714q15.433143-34.304 47.177143-55.149714t67.437714-22.601143 69.412571 9.728 56.832 42.569143 25.453714 75.117714zM1263.981714 836.022857q4.534857 6.290286-6.290286 23.990857 4.022857 13.165714 4.022857 22.820571 0.585143 32.036571-25.453714 64.292571t-62.537143 52.297143-67.437714 21.138286q-27.428571 1.170286-52.589714-12.288t-37.741714-37.449143q-392.557714 14.262857-719.433143 0-13.165714 23.405714-38.034286 37.156571t-52.882286 12.580571q-49.152-1.682286-102.546286-46.006857t-52.882286-91.721143q1.170286-12.580571 4.022857-22.820571-10.825143-17.700571-6.290286-23.990857 3.437714-5.705143 17.700571-0.585143 7.972571-12.580571 23.405714-29.110857-4.022857-16.603429 1.170286-21.723429 6.290286-5.705143 22.308571 2.267429 16.603429-11.410286 33.718857-19.456 0-16.603429 7.460571-21.138286 13.165714-6.875429 29.110857 9.142857 19.968-2.852571 34.889143 1.170286 10.313143 2.267429 21.723429 10.825143l0-41.691429q-6.290286 0-10.313143-1.170286-30.281143-5.705143-55.442286-25.453714t-31.451429-50.029714q-5.12-21.723429 0-46.299429 8.557714-35.401143 53.174857-54.272 1.170286-9.728 10.825143-20.260571t20.553143-13.458286 18.870857 4.315429 10.825143 17.408l7.460571 0q26.258286 2.852571 34.304 13.165714 1.682286 1.682286 2.852571 4.022857 5.705143-0.585143 17.408-1.974857t17.408-1.974857q-8.557714-6.290286-17.115429-9.728-13.165714-22.820571-52.004571-24.576 0-3.437714 0.585143-5.705143-35.401143-1.170286-67.730286-10.605714t-48.274286-27.136q-18.285714-20.553143-24.283429-52.589714t-1.462857-64q9.142857-71.972571 51.419429-102.253714 13.165714-9.142857 29.696-2.56t18.285714 23.113143q0 0.585143 0.877714 7.972571t1.462857 11.995429 1.682286 11.410286 3.145143 10.825143 4.827429 5.705143q15.433143 7.972571 43.446857 6.875429 27.428571-26.258286 56.027429-42.276571-22.820571-2.267429-92.598857 7.972571l26.843429-26.258286q34.889143-33.133714 93.110857-63.414857 82.870857-41.691429 161.133714-49.152-11.410286-4.534857-23.405714-8.850286t-26.843429-7.972571-24.283429-5.997714-27.136-6.290286-24.576-5.705143q339.968-71.972571 516.534857 79.433143 56.027429 47.981714 90.258286 126.829714 48.566857 5.705143 69.12-5.12l0.585143 0q2.852571-1.682286 4.827429-5.705143t3.145143-10.825143 1.682286-11.117714 1.682286-12.288l0.585143-7.972571q1.682286-16.018286 18.285714-22.820571t29.696 2.852571q41.691429 29.696 52.004571 101.741714 4.022857 32.548571-1.974857 64.585143t-24.283429 52.004571q-16.018286 18.285714-47.689143 27.721143t-65.974857 10.605714l0 5.705143q-40.594286 1.170286-54.272 24.576-7.972571 2.852571-17.700571 9.728 6.290286 0.585143 18.285714 1.974857t17.115429 1.974857q0.585143-2.267429 2.852571-4.534857 9.142857-10.313143 34.304-13.165714l7.460571 0q2.852571-10.313143 10.825143-17.115429t18.870857-4.534857 20.553143 13.165714 10.825143 20.553143q45.129143 18.285714 53.174857 54.272 5.12 22.820571 0.585143 46.299429-6.875429 30.281143-32.036571 50.322286t-55.442286 25.161143q-5.705143 1.170286-9.728 1.170286 0 28.013714-0.585143 41.691429 11.410286-8.557714 21.723429-10.825143 14.848-4.022857 34.889143-1.170286 16.018286-16.018286 29.110857-9.142857 7.972571 5.12 7.972571 21.138286 18.870857 9.142857 33.718857 19.456 15.433143-7.460571 21.723429-2.267429 5.705143 5.705143 1.170286 21.723429 16.018286 17.115429 23.405714 29.110857 13.165714-4.534857 17.700571 0.585143zM1106.870857 291.986286q0 16.603429-5.12 30.866286 46.884571 18.285714 64 75.410286 2.267429-21.138286-5.412571-56.32t-23.698286-51.712q-11.410286-10.825143-20.553143-9.728t-9.142857 11.410286zM1062.253714 349.110857q19.968 23.990857 27.136 62.025143t-0.292571 71.168q38.253714-7.460571 55.442286-25.746286 7.460571-7.972571 10.313143-16.018286-1.682286-36.571429-17.700571-65.462857t-45.129143-38.034286q-8.557714 8.557714-29.696 11.995429zM1041.115429 351.451429q-17.115429 0-25.161143-0.585143 23.990857 65.682286 30.281143 136.557714 11.995429 0 24.576-1.682286 9.142857-38.838857 0.585143-77.165714t-30.281143-57.124571zM147.456 398.262857q17.115429-57.124571 64-75.410286-5.12-14.262857-5.12-30.866286 0-10.313143-9.435429-11.410286t-20.260571 9.728q-16.018286 16.603429-23.698286 51.712t-5.412571 56.32zM168.009143 456.557714q16.603429 17.700571 55.442286 25.746286-7.460571-33.133714-0.292571-71.168t27.136-62.025143l0 0q-21.138286-3.437714-29.696-11.995429-29.110857 9.142857-44.836571 37.741714t-17.993143 65.682286q5.12 9.728 10.313143 16.018286zM269.165714 487.424q7.972571-70.875429 41.691429-134.290286-10.825143 2.267429-31.451429 10.313143l-25.746286 10.825143 0-0.585143q-26.258286 50.834286-11.410286 111.981714 14.262857 1.682286 26.843429 1.682286zM819.419429 509.732571q4.534857 21.723429 9.435429 62.025143t6.582857 51.126857q1.682286 10.313143 5.412571 12.288t13.458286-2.56q22.820571-11.410286 35.401143-48.859429t13.165714-71.68q-13.677714-1.170286-83.456-2.267429zM658.285714 143.433143q-66.267429 0-113.737143 47.177143t-47.396571 113.444571q0 66.852571 47.396571 114.029714t113.737143 47.177143 113.737143-47.177143 47.396571-114.029714q0-66.267429-47.396571-113.444571t-113.737143-47.177143zM788.553143 508.562286q-60.562286-1.170286-120.539429 0l0-0.585143q-0.585143 15.433143 1.462857 49.152t7.68 37.741714q16.603429 7.972571 53.394286 8.265143t54.564571-5.997714q5.12-1.682286 6.290286-22.308571t-0.292571-39.716571-2.56-26.550857zM635.465143 622.299429q4.534857-2.267429 5.412571-27.428571t-0.292571-50.322286-2.267429-35.986286l0-0.585143q-121.124571 1.682286-122.294857 1.682286-2.267429 11.410286-4.022857 35.401143t0 47.396571 7.972571 26.258286q19.456 8.557714 57.709714 9.142857t57.709714-5.705143zM410.258286 514.267429q-9.142857 33.718857 2.56 67.730286t44.251429 48.274286q8.557714 4.534857 13.677714 2.852571t6.875429-11.995429q1.682286-9.142857 4.534857-51.419429t5.705143-58.88q-39.424 1.170286-77.677714 3.437714zM337.700571 586.313143q1.682286 13.165714-19.456 20.553143 75.410286 80.603429 155.136 137.142857t174.592 87.990857q98.304-28.013714 177.444571-83.456t167.716571-142.848q-18.870857-7.460571-17.115429-19.456l1.682286-5.12q-9.728-1.170286-28.598857-3.145143t-27.428571-2.56q-14.848 51.419429-46.884571 75.410286-29.110857 21.723429-46.884571-0.585143-2.852571-3.437714-5.12-7.972571-4.022857-7.460571-9.728-35.401143-1.170286 2.852571-2.852571 5.12t-4.315429 4.022857-4.534857 3.145143-5.412571 2.267429l-5.705143 1.462857t-6.875429 1.170286l-6.875429 0.877714t-7.68 0.585143-7.68 0.292571q-60.562286 5.12-93.110857-6.290286-2.267429 9.728-5.705143 15.140571t-11.995429 8.557714-13.165714 4.022857-20.553143 1.974857q-1.170286 0-1.682286 0.292571t-1.682286 0.292571l-1.682286 0q-102.253714 9.728-116.004571-22.820571-1.170286 35.986286-32.036571 30.866286-26.843429-4.534857-52.004571-30.866286-6.875429-7.460571-11.410286-14.848-9.728-16.603429-14.848-37.156571-33.133714 3.437714-49.737143 5.705143 0.585143 1.170286 2.267429 5.705143zM289.718857 945.152q1.682286-7.972571 1.682286-17.115429-9.728-40.594286-29.110857-74.313143t-41.691429-40.009143q-23.405714-6.875429-58.002286 8.265143t-59.684571 45.714286-22.308571 61.44q19.968 30.281143 57.124571 53.174857t68.022857 23.990857q29.110857 1.170286 53.686857-16.018286t30.281143-45.129143zM291.401143 847.433143q13.165714 35.986286 15.433143 68.022857 111.396571-64.585143 224.036571-99.401143-56.027429-29.696-103.131429-68.534857t-102.546286-94.281143q-3.437714 2.267429-16.603429 7.460571 0 1.170286-0.585143 2.852571t-0.585143 2.267429q17.700571 10.313143 12.580571 21.138286-6.875429 13.165714-32.036571 19.456-5.705143 7.460571-16.603429 13.677714l-0.585143 0q-1.170286 47.396571 0.585143 85.723429 10.825143 19.456 19.968 41.691429zM330.825143 942.299429q303.981714 11.995429 654.262857 0-145.115429-83.968-244.589714-111.981714-43.446857 19.968-89.161143 32.548571-4.534857 1.682286-9.142857 0-37.156571-11.995429-73.728-28.013714-118.857143 34.304-237.714286 107.446857l-0.585143 0 0 0.585143q0.585143 0 0.585143-0.585143zM1007.396571 915.968q2.267429-30.866286 16.018286-68.534857 7.972571-21.723429 18.870857-40.594286l-0.585143 0.585143q1.682286-44.032 1.682286-87.405714-8.557714-4.534857-17.115429-14.262857-23.990857-5.12-32.036571-18.870857-5.12-11.410286 12.580571-21.723429-1.170286-2.267429-1.170286-5.12-9.142857-2.267429-16.018286-6.875429-116.589714 108.544-218.843429 162.304 113.152 33.718857 236.544 100.571429zM1231.433143 929.133714q2.852571-30.866286-22.308571-61.44t-59.465143-45.714286-58.294857-8.265143q-21.723429 6.290286-41.398857 40.301714t-29.403429 74.020571q0 9.142857 1.682286 17.115429 5.705143 28.013714 30.281143 45.129143t53.686857 16.018286q30.866286-1.170286 68.022857-23.990857t57.124571-53.174857z" fill="#2c2c2c" p-id="4147" data-spm-anchor-id="a313x.search_index.0.i0.6db63a81q3XuyK" class="selected"></path></svg>